{
	"asset":{
		"generator":"Khronos glTF Blender I/O v4.0.44",
		"version":"2.0"
	},
	"scene":0,
	"scenes":[
		{
			"name":"Scene",
			"nodes":[
				0,
				1,
				2,
				3,
				4
			]
		}
	],
	"nodes":[
		{
			"mesh":0,
			"name":"tennisbal",
			"rotation":[
				0.7071068286895752,
				0,
				0,
				0.7071068286895752
			],
			"scale":[
				0.43781471252441406,
				0.43781471252441406,
				0.43781471252441406
			],
			"translation":[
				3.474778652191162,
				0.01264333724975586,
				5.196634769439697
			]
		},
		{
			"mesh":1,
			"name":"dog house"
		},
		{
			"mesh":2,
			"name":"green grass",
			"translation":[
				0,
				-0.8187270760536194,
				0
			]
		},
		{
			"mesh":3,
			"name":"roof",
			"translation":[
				0,
				0.08184967190027237,
				0
			]
		},
		{
			"mesh":4,
			"name":"dogbone",
			"translation":[
				-0.2144579291343689,
				0.7832798361778259,
				1.0252999067306519
			]
		}
	],
	"animations":[
		{
			"channels":[
				{
					"sampler":0,
					"target":{
						"node":0,
						"path":"translation"
					}
				},
				{
					"sampler":1,
					"target":{
						"node":0,
						"path":"rotation"
					}
				},
				{
					"sampler":2,
					"target":{
						"node":0,
						"path":"scale"
					}
				}
			],
			"name":"tennisbalAction.002",
			"samplers":[
				{
					"input":49,
					"interpolation":"LINEAR",
					"output":50
				},
				{
					"input":51,
					"interpolation":"STEP",
					"output":52
				},
				{
					"input":49,
					"interpolation":"LINEAR",
					"output":53
				}
			]
		}
	],
	"materials":[
		{
			"doubleSided":true,
			"name":"Material.007",
			"pbrMetallicRoughness":{
				"baseColorFactor":[
					0.5338854789733887,
					0.8007350564002991,
					0.07253964245319366,
					1
				],
				"metallicFactor":0,
				"roughnessFactor":0.4000000059604645
			}
		},
		{
			"doubleSided":true,
			"name":"Material.008",
			"pbrMetallicRoughness":{
				"baseColorFactor":[
					0.800000011920929,
					0.800000011920929,
					0.800000011920929,
					1
				],
				"metallicFactor":0,
				"roughnessFactor":0.5
			}
		},
		{
			"doubleSided":true,
			"name":"Material.002",
			"pbrMetallicRoughness":{
				"baseColorFactor":[
					0.19052191078662872,
					0.39786094427108765,
					0.5526551008224487,
					1
				],
				"metallicFactor":0,
				"roughnessFactor":0.4000000059604645
			}
		},
		{
			"doubleSided":true,
			"name":"Material.003",
			"pbrMetallicRoughness":{
				"baseColorFactor":[
					0.7992374897003174,
					0.775788426399231,
					0.41251301765441895,
					1
				],
				"metallicFactor":0,
				"roughnessFactor":0.5
			}
		},
		{
			"doubleSided":true,
			"name":"Material.006",
			"pbrMetallicRoughness":{
				"baseColorFactor":[
					0.1096513569355011,
					0.8002356290817261,
					0.2578088939189911,
					1
				],
				"metallicFactor":0,
				"roughnessFactor":0.5
			}
		},
		{
			"doubleSided":true,
			"name":"Material.004",
			"pbrMetallicRoughness":{
				"baseColorFactor":[
					0.7992374897003174,
					0.775788426399231,
					0.41251301765441895,
					1
				],
				"metallicFactor":0,
				"roughnessFactor":0.4000000059604645
			}
		},
		{
			"doubleSided":true,
			"name":"Material.005",
			"pbrMetallicRoughness":{
				"baseColorFactor":[
					0.27499762177467346,
					0.27499762177467346,
					0.27499762177467346,
					1
				],
				"metallicFactor":0,
				"roughnessFactor":0.5
			}
		},
		{
			"doubleSided":true,
			"name":"Material.009",
			"pbrMetallicRoughness":{
				"baseColorFactor":[
					0.800000011920929,
					0.800000011920929,
					0.800000011920929,
					1
				],
				"metallicFactor":0,
				"roughnessFactor":0.4000000059604645
			}
		},
		{
			"doubleSided":true,
			"name":"Material.001",
			"pbrMetallicRoughness":{
				"baseColorFactor":[
					0.800481915473938,
					0.7357153296470642,
					0.7282724976539612,
					1
				],
				"metallicFactor":0,
				"roughnessFactor":0.4000000059604645
			}
		},
		{
			"doubleSided":true,
			"name":"Material.010",
			"pbrMetallicRoughness":{
				"baseColorFactor":[
					0.800000011920929,
					0.800000011920929,
					0.800000011920929,
					1
				],
				"metallicFactor":0,
				"roughnessFactor":0.4000000059604645
			}
		},
		{
			"doubleSided":true,
			"name":"Material.011",
			"pbrMetallicRoughness":{
				"baseColorFactor":[
					0.800000011920929,
					0.800000011920929,
					0.800000011920929,
					1
				],
				"metallicFactor":0,
				"roughnessFactor":0.4000000059604645
			}
		},
		{
			"doubleSided":true,
			"name":"Material",
			"pbrMetallicRoughness":{
				"baseColorFactor":[
					0.8004492521286011,
					0.7747809886932373,
					0.7826157808303833,
					1
				],
				"metallicFactor":0,
				"roughnessFactor":0.4000000059604645
			}
		}
	],
	"meshes":[
		{
			"name":"Sphere.007",
			"primitives":[
				{
					"attributes":{
						"POSITION":0,
						"NORMAL":1,
						"TEXCOORD_0":2
					},
					"indices":3,
					"material":0
				},
				{
					"attributes":{
						"POSITION":4,
						"NORMAL":5,
						"TEXCOORD_0":6
					},
					"indices":7,
					"material":1
				}
			]
		},
		{
			"name":"Cube.001",
			"primitives":[
				{
					"attributes":{
						"POSITION":8,
						"NORMAL":9,
						"TEXCOORD_0":10
					},
					"indices":11,
					"material":2
				},
				{
					"attributes":{
						"POSITION":12,
						"NORMAL":13,
						"TEXCOORD_0":14
					},
					"indices":15,
					"material":3
				}
			]
		},
		{
			"name":"Plane",
			"primitives":[
				{
					"attributes":{
						"POSITION":16,
						"NORMAL":17,
						"TEXCOORD_0":18
					},
					"indices":19,
					"material":4
				},
				{
					"attributes":{
						"POSITION":20,
						"NORMAL":21,
						"TEXCOORD_0":22
					},
					"indices":23,
					"material":4
				}
			]
		},
		{
			"name":"Cube.002",
			"primitives":[
				{
					"attributes":{
						"POSITION":24,
						"NORMAL":25,
						"TEXCOORD_0":26
					},
					"indices":27,
					"material":5
				},
				{
					"attributes":{
						"POSITION":28,
						"NORMAL":29,
						"TEXCOORD_0":30
					},
					"indices":31,
					"material":6
				}
			]
		},
		{
			"name":"Sphere.002",
			"primitives":[
				{
					"attributes":{
						"POSITION":32,
						"NORMAL":33,
						"TEXCOORD_0":34
					},
					"indices":35,
					"material":7
				},
				{
					"attributes":{
						"POSITION":36,
						"NORMAL":37,
						"TEXCOORD_0":38
					},
					"indices":39,
					"material":8
				},
				{
					"attributes":{
						"POSITION":40,
						"NORMAL":41,
						"TEXCOORD_0":42
					},
					"indices":35,
					"material":9
				},
				{
					"attributes":{
						"POSITION":43,
						"NORMAL":44,
						"TEXCOORD_0":45
					},
					"indices":35,
					"material":10
				},
				{
					"attributes":{
						"POSITION":46,
						"NORMAL":47,
						"TEXCOORD_0":48
					},
					"indices":35,
					"material":11
				}
			]
		}
	],
	"accessors":[
		{
			"bufferView":0,
			"componentType":5126,
			"count":1023,
			"max":[
				1.0000033378601074,
				0.9999993443489075,
				0.9999996423721313
			],
			"min":[
				-0.999995231628418,
				-1,
				-0.9999997615814209
			],
			"type":"VEC3"
		},
		{
			"bufferView":1,
			"componentType":5126,
			"count":1023,
			"type":"VEC3"
		},
		{
			"bufferView":2,
			"componentType":5126,
			"count":1023,
			"type":"VEC2"
		},
		{
			"bufferView":3,
			"componentType":5123,
			"count":3648,
			"type":"SCALAR"
		},
		{
			"bufferView":4,
			"componentType":5126,
			"count":168,
			"max":[
				0.739802360534668,
				0.7398360967636108,
				0.7398363351821899
			],
			"min":[
				-0.7397942543029785,
				-0.7398361563682556,
				-0.7398358583450317
			],
			"type":"VEC3"
		},
		{
			"bufferView":5,
			"componentType":5126,
			"count":168,
			"type":"VEC3"
		},
		{
			"bufferView":6,
			"componentType":5126,
			"count":168,
			"type":"VEC2"
		},
		{
			"bufferView":7,
			"componentType":5123,
			"count":384,
			"type":"SCALAR"
		},
		{
			"bufferView":8,
			"componentType":5126,
			"count":6348,
			"max":[
				1.031445026397705,
				1.4026679992675781,
				1.0525648593902588
			],
			"min":[
				-1.031445026397705,
				-0.9768361449241638,
				-1.0292904376983643
			],
			"type":"VEC3"
		},
		{
			"bufferView":9,
			"componentType":5126,
			"count":6348,
			"type":"VEC3"
		},
		{
			"bufferView":10,
			"componentType":5126,
			"count":6348,
			"type":"VEC2"
		},
		{
			"bufferView":11,
			"componentType":5123,
			"count":20691,
			"type":"SCALAR"
		},
		{
			"bufferView":12,
			"componentType":5126,
			"count":475,
			"max":[
				0.5659856200218201,
				0.5961933732032776,
				1.0525648593902588
			],
			"min":[
				-0.5659856200218201,
				-0.9518803954124451,
				1
			],
			"type":"VEC3"
		},
		{
			"bufferView":13,
			"componentType":5126,
			"count":475,
			"type":"VEC3"
		},
		{
			"bufferView":14,
			"componentType":5126,
			"count":475,
			"type":"VEC2"
		},
		{
			"bufferView":15,
			"componentType":5123,
			"count":1311,
			"type":"SCALAR"
		},
		{
			"bufferView":16,
			"componentType":5126,
			"count":88,
			"max":[
				2.4890952110290527,
				0,
				2.4759976863861084
			],
			"min":[
				-2.4706506729125977,
				-0.2258983850479126,
				-2.4706506729125977
			],
			"type":"VEC3"
		},
		{
			"bufferView":17,
			"componentType":5126,
			"count":88,
			"type":"VEC3"
		},
		{
			"bufferView":18,
			"componentType":5126,
			"count":88,
			"type":"VEC2"
		},
		{
			"bufferView":19,
			"componentType":5123,
			"count":240,
			"type":"SCALAR"
		},
		{
			"bufferView":20,
			"componentType":5126,
			"count":128,
			"max":[
				0.602450966835022,
				0,
				0.5552883744239807
			],
			"min":[
				-0.5889986753463745,
				-0.2258983850479126,
				-0.6361612677574158
			],
			"type":"VEC3"
		},
		{
			"bufferView":21,
			"componentType":5126,
			"count":128,
			"type":"VEC3"
		},
		{
			"bufferView":22,
			"componentType":5126,
			"count":128,
			"type":"VEC2"
		},
		{
			"bufferView":23,
			"componentType":5123,
			"count":192,
			"type":"SCALAR"
		},
		{
			"bufferView":24,
			"componentType":5126,
			"count":2158,
			"max":[
				1.2288810014724731,
				1.411935567855835,
				1.195931315422058
			],
			"min":[
				-1.2288810014724731,
				0.6200969219207764,
				-1.195931315422058
			],
			"type":"VEC3"
		},
		{
			"bufferView":25,
			"componentType":5126,
			"count":2158,
			"type":"VEC3"
		},
		{
			"bufferView":26,
			"componentType":5126,
			"count":2158,
			"type":"VEC2"
		},
		{
			"bufferView":27,
			"componentType":5123,
			"count":5088,
			"type":"SCALAR"
		},
		{
			"bufferView":28,
			"componentType":5126,
			"count":384,
			"max":[
				1.2141627073287964,
				1.411935567855835,
				1.1614176034927368
			],
			"min":[
				-1.2141627073287964,
				0.7911720275878906,
				-1.1614176034927368
			],
			"type":"VEC3"
		},
		{
			"bufferView":29,
			"componentType":5126,
			"count":384,
			"type":"VEC3"
		},
		{
			"bufferView":30,
			"componentType":5126,
			"count":384,
			"type":"VEC2"
		},
		{
			"bufferView":31,
			"componentType":5123,
			"count":768,
			"type":"SCALAR"
		},
		{
			"bufferView":32,
			"componentType":5126,
			"count":559,
			"max":[
				0.09143172204494476,
				0.09143175184726715,
				0.09143169224262238
			],
			"min":[
				-0.09143166244029999,
				-0.09143175184726715,
				-0.09143175184726715
			],
			"type":"VEC3"
		},
		{
			"bufferView":33,
			"componentType":5126,
			"count":559,
			"type":"VEC3"
		},
		{
			"bufferView":34,
			"componentType":5126,
			"count":559,
			"type":"VEC2"
		},
		{
			"bufferView":35,
			"componentType":5123,
			"count":2880,
			"type":"SCALAR"
		},
		{
			"bufferView":36,
			"componentType":5126,
			"count":130,
			"max":[
				0.46237802505493164,
				0.12171071767807007,
				0.05349522829055786
			],
			"min":[
				0.005357697606086731,
				0.01416081190109253,
				-0.04958134889602661
			],
			"type":"VEC3"
		},
		{
			"bufferView":37,
			"componentType":5126,
			"count":130,
			"type":"VEC3"
		},
		{
			"bufferView":38,
			"componentType":5126,
			"count":130,
			"type":"VEC2"
		},
		{
			"bufferView":39,
			"componentType":5123,
			"count":372,
			"type":"SCALAR"
		},
		{
			"bufferView":40,
			"componentType":5126,
			"count":559,
			"max":[
				0.538130521774292,
				0.2254486232995987,
				0.09143169224262238
			],
			"min":[
				0.35526710748672485,
				0.04258511960506439,
				-0.09143175184726715
			],
			"type":"VEC3"
		},
		{
			"bufferView":41,
			"componentType":5126,
			"count":559,
			"type":"VEC3"
		},
		{
			"bufferView":42,
			"componentType":5126,
			"count":559,
			"type":"VEC2"
		},
		{
			"bufferView":43,
			"componentType":5126,
			"count":559,
			"max":[
				0.538130521774292,
				0.09143175184726715,
				0.09143169224262238
			],
			"min":[
				0.35526710748672485,
				-0.09143175184726715,
				-0.09143175184726715
			],
			"type":"VEC3"
		},
		{
			"bufferView":44,
			"componentType":5126,
			"count":559,
			"type":"VEC3"
		},
		{
			"bufferView":45,
			"componentType":5126,
			"count":559,
			"type":"VEC2"
		},
		{
			"bufferView":46,
			"componentType":5126,
			"count":559,
			"max":[
				0.09143172204494476,
				0.2254486232995987,
				0.09143169224262238
			],
			"min":[
				-0.09143166244029999,
				0.04258511960506439,
				-0.09143175184726715
			],
			"type":"VEC3"
		},
		{
			"bufferView":47,
			"componentType":5126,
			"count":559,
			"type":"VEC3"
		},
		{
			"bufferView":48,
			"componentType":5126,
			"count":559,
			"type":"VEC2"
		},
		{
			"bufferView":49,
			"componentType":5126,
			"count":110,
			"max":[
				4.583333333333333
			],
			"min":[
				0.041666666666666664
			],
			"type":"SCALAR"
		},
		{
			"bufferView":50,
			"componentType":5126,
			"count":110,
			"type":"VEC3"
		},
		{
			"bufferView":51,
			"componentType":5126,
			"count":2,
			"max":[
				4.583333333333333
			],
			"min":[
				0.041666666666666664
			],
			"type":"SCALAR"
		},
		{
			"bufferView":52,
			"componentType":5126,
			"count":2,
			"type":"VEC4"
		},
		{
			"bufferView":53,
			"componentType":5126,
			"count":110,
			"type":"VEC3"
		}
	],
	"bufferViews":[
		{
			"buffer":0,
			"byteLength":12276,
			"byteOffset":0,
			"target":34962
		},
		{
			"buffer":0,
			"byteLength":12276,
			"byteOffset":12276,
			"target":34962
		},
		{
			"buffer":0,
			"byteLength":8184,
			"byteOffset":24552,
			"target":34962
		},
		{
			"buffer":0,
			"byteLength":7296,
			"byteOffset":32736,
			"target":34963
		},
		{
			"buffer":0,
			"byteLength":2016,
			"byteOffset":40032,
			"target":34962
		},
		{
			"buffer":0,
			"byteLength":2016,
			"byteOffset":42048,
			"target":34962
		},
		{
			"buffer":0,
			"byteLength":1344,
			"byteOffset":44064,
			"target":34962
		},
		{
			"buffer":0,
			"byteLength":768,
			"byteOffset":45408,
			"target":34963
		},
		{
			"buffer":0,
			"byteLength":76176,
			"byteOffset":46176,
			"target":34962
		},
		{
			"buffer":0,
			"byteLength":76176,
			"byteOffset":122352,
			"target":34962
		},
		{
			"buffer":0,
			"byteLength":50784,
			"byteOffset":198528,
			"target":34962
		},
		{
			"buffer":0,
			"byteLength":41382,
			"byteOffset":249312,
			"target":34963
		},
		{
			"buffer":0,
			"byteLength":5700,
			"byteOffset":290696,
			"target":34962
		},
		{
			"buffer":0,
			"byteLength":5700,
			"byteOffset":296396,
			"target":34962
		},
		{
			"buffer":0,
			"byteLength":3800,
			"byteOffset":302096,
			"target":34962
		},
		{
			"buffer":0,
			"byteLength":2622,
			"byteOffset":305896,
			"target":34963
		},
		{
			"buffer":0,
			"byteLength":1056,
			"byteOffset":308520,
			"target":34962
		},
		{
			"buffer":0,
			"byteLength":1056,
			"byteOffset":309576,
			"target":34962
		},
		{
			"buffer":0,
			"byteLength":704,
			"byteOffset":310632,
			"target":34962
		},
		{
			"buffer":0,
			"byteLength":480,
			"byteOffset":311336,
			"target":34963
		},
		{
			"buffer":0,
			"byteLength":1536,
			"byteOffset":311816,
			"target":34962
		},
		{
			"buffer":0,
			"byteLength":1536,
			"byteOffset":313352,
			"target":34962
		},
		{
			"buffer":0,
			"byteLength":1024,
			"byteOffset":314888,
			"target":34962
		},
		{
			"buffer":0,
			"byteLength":384,
			"byteOffset":315912,
			"target":34963
		},
		{
			"buffer":0,
			"byteLength":25896,
			"byteOffset":316296,
			"target":34962
		},
		{
			"buffer":0,
			"byteLength":25896,
			"byteOffset":342192,
			"target":34962
		},
		{
			"buffer":0,
			"byteLength":17264,
			"byteOffset":368088,
			"target":34962
		},
		{
			"buffer":0,
			"byteLength":10176,
			"byteOffset":385352,
			"target":34963
		},
		{
			"buffer":0,
			"byteLength":4608,
			"byteOffset":395528,
			"target":34962
		},
		{
			"buffer":0,
			"byteLength":4608,
			"byteOffset":400136,
			"target":34962
		},
		{
			"buffer":0,
			"byteLength":3072,
			"byteOffset":404744,
			"target":34962
		},
		{
			"buffer":0,
			"byteLength":1536,
			"byteOffset":407816,
			"target":34963
		},
		{
			"buffer":0,
			"byteLength":6708,
			"byteOffset":409352,
			"target":34962
		},
		{
			"buffer":0,
			"byteLength":6708,
			"byteOffset":416060,
			"target":34962
		},
		{
			"buffer":0,
			"byteLength":4472,
			"byteOffset":422768,
			"target":34962
		},
		{
			"buffer":0,
			"byteLength":5760,
			"byteOffset":427240,
			"target":34963
		},
		{
			"buffer":0,
			"byteLength":1560,
			"byteOffset":433000,
			"target":34962
		},
		{
			"buffer":0,
			"byteLength":1560,
			"byteOffset":434560,
			"target":34962
		},
		{
			"buffer":0,
			"byteLength":1040,
			"byteOffset":436120,
			"target":34962
		},
		{
			"buffer":0,
			"byteLength":744,
			"byteOffset":437160,
			"target":34963
		},
		{
			"buffer":0,
			"byteLength":6708,
			"byteOffset":437904,
			"target":34962
		},
		{
			"buffer":0,
			"byteLength":6708,
			"byteOffset":444612,
			"target":34962
		},
		{
			"buffer":0,
			"byteLength":4472,
			"byteOffset":451320,
			"target":34962
		},
		{
			"buffer":0,
			"byteLength":6708,
			"byteOffset":455792,
			"target":34962
		},
		{
			"buffer":0,
			"byteLength":6708,
			"byteOffset":462500,
			"target":34962
		},
		{
			"buffer":0,
			"byteLength":4472,
			"byteOffset":469208,
			"target":34962
		},
		{
			"buffer":0,
			"byteLength":6708,
			"byteOffset":473680,
			"target":34962
		},
		{
			"buffer":0,
			"byteLength":6708,
			"byteOffset":480388,
			"target":34962
		},
		{
			"buffer":0,
			"byteLength":4472,
			"byteOffset":487096,
			"target":34962
		},
		{
			"buffer":0,
			"byteLength":440,
			"byteOffset":491568
		},
		{
			"buffer":0,
			"byteLength":1320,
			"byteOffset":492008
		},
		{
			"buffer":0,
			"byteLength":8,
			"byteOffset":493328
		},
		{
			"buffer":0,
			"byteLength":32,
			"byteOffset":493336
		},
		{
			"buffer":0,
			"byteLength":1320,
			"byteOffset":493368
		}
	],
	"buffers":[
		{
			"byteLength":494688,
			"uri":"doghouse-animatio-advanced.bin"
		}
	]
}
